HIERARCHY
ROOT hip
{
	OFFSET 0.000000 0.000000 0.000000 
	CHANNELS 6 Xposition Yposition Zposition Xrotation Zrotation Yrotation
	JOINT abdomen
	{
		OFFSET 0.000000 3.402643 0.000000 
		CHANNELS 3 Xrotation Zrotation Yrotation
		JOINT chest
		{
			OFFSET 0.000000 8.438565 -0.680529 
			CHANNELS 3 Xrotation Zrotation Yrotation
			JOINT neck
			{
				OFFSET 0.000000 10.207942 -0.272212 
				CHANNELS 3 Xrotation Zrotation Yrotation
				JOINT head
				{
					OFFSET 0.000000 3.130431 0.000000 
					CHANNELS 3 Xrotation Zrotation Yrotation
					End Site
					{
						OFFSET 0.000000 3.130435 0.000000 
					}
				}
			}
			JOINT lCollar
			{
				OFFSET 3.470700 6.669187 -0.816635 
				CHANNELS 3 Yrotation Zrotation Xrotation
				JOINT lShldr
				{
					OFFSET 3.198488 0.000000 0.000000 
					CHANNELS 3 Zrotation Yrotation Xrotation
					JOINT lForeArm
					{
						OFFSET 10.139888 0.000000 0.000000 
						CHANNELS 3 Yrotation Zrotation Xrotation
						JOINT lHand
						{
							OFFSET 8.370511 0.000000 0.000000 
							CHANNELS 3 Zrotation Yrotation Xrotation
							End Site
							{
								OFFSET 4.083176 0.000000 0.000000 
							}
						}
					}
				}
			}
			JOINT rCollar
			{
				OFFSET -3.470700 6.669187 -0.816635 
				CHANNELS 3 Yrotation Zrotation Xrotation
				JOINT rShldr
				{
					OFFSET -3.198488 0.000000 0.000000 
					CHANNELS 3 Zrotation Yrotation Xrotation
					JOINT rForeArm
					{
						OFFSET -10.139888 0.000000 0.000000 
						CHANNELS 3 Yrotation Zrotation Xrotation
						JOINT rHand
						{
							OFFSET -8.370511 0.000000 0.000000 
							CHANNELS 3 Zrotation Yrotation Xrotation
							End Site
							{
								OFFSET -4.083176 0.000000 0.000000 
							}
						}
					}
				}
			}
		}
	}
	JOINT lThigh
	{
		OFFSET 5.308129 -1.633274 1.361059 
		CHANNELS 3 Xrotation Zrotation Yrotation
		JOINT lShin
		{
			OFFSET -2.041588 -20.007561 0.000000 
			CHANNELS 3 Xrotation Zrotation Yrotation
			JOINT lFoot
			{
				OFFSET 0.000000 -19.190928 -1.224953 
				CHANNELS 3 Xrotation Yrotation Zrotation
				End Site
				{
					OFFSET 0.000000 -2.449906 4.627600 
				}
			}
		}
	}
	JOINT rThigh
	{
		OFFSET -5.308129 -1.633274 1.361059 
		CHANNELS 3 Xrotation Zrotation Yrotation
		JOINT rShin
		{
			OFFSET 2.041588 -20.007561 0.000000 
			CHANNELS 3 Xrotation Zrotation Yrotation
			JOINT rFoot
			{
				OFFSET 0.000000 -19.190928 -1.224953 
				CHANNELS 3 Xrotation Yrotation Zrotation
				End Site
				{
					OFFSET 0.000000 -2.449906 4.627600 
				}
			}
		}
	}
}
MOTION
Frames: 14
Frame Time: 0.011111
-18.048071 43.124458 -46.601761 6.222227 -4.798467 79.989235 25.932682 -9.433696 -1.593383 -11.069667 7.663078 -0.192801 -12.021373 -11.245078 -5.672867 9.102293 24.429333 -11.346173 12.413046 -14.960623 4.251975 -68.916702 -50.404358 67.952568 -67.762444 10.196282 14.864488 6.992188 16.005859 -51.178947 -6.427974 8.898234 2.089853 52.455441 53.213135 27.530308 82.621429 -7.266496 22.246378 -7.001954 -15.996095 70.302734 -24.066708 17.806995 7.957820 58.736656 -4.368526 -4.447443 -37.549683 -10.955341 -5.480381 -52.257027 -29.106623 2.837163 80.749825 2.968773 5.743095 -32.714638 -4.818205 -4.239629 
-18.058392 43.156361 -46.410038 6.639502 -4.698733 78.905792 25.669212 -9.898489 -2.007755 -10.903887 7.779428 -0.272753 -12.571033 -11.317125 -5.399394 9.543619 24.493372 -10.870308 12.413046 -14.960623 4.251975 -69.491562 -51.521469 69.546547 -67.882072 10.197727 14.925406 6.992188 16.005859 -51.071522 -6.427974 8.898234 2.089853 52.702610 51.510227 28.108509 82.401604 -7.364234 22.117817 -7.001954 -15.996095 70.742188 -23.287289 17.652439 8.519136 58.167503 -4.379604 -4.431077 -37.345238 -10.604168 -5.202901 -52.835644 -29.371651 3.100366 81.777763 2.891116 5.786392 -31.745878 -4.639680 -3.898642 
-18.053387 43.189827 -46.234253 6.520692 -4.617934 77.977608 25.499065 -9.592756 -2.267362 -10.830960 7.483806 -0.356917 -13.262653 -11.184438 -5.206608 10.167726 24.154692 -10.529830 12.413046 -14.960623 4.251975 -69.851006 -52.503277 71.136147 -68.180458 10.186522 15.051901 6.992188 16.005859 -50.856682 -6.427974 8.898234 2.089853 53.180012 49.832672 28.672338 82.053421 -7.511095 21.929651 -7.001954 -15.996095 70.712891 -22.574316 18.003683 8.810106 57.478268 -4.428348 -4.371482 -37.087189 -10.059476 -4.759023 -52.749664 -29.284781 2.793240 82.737038 2.822627 5.833729 -30.367792 -4.257747 -3.346036 
-18.051510 43.260826 -46.015007 6.148925 -4.681997 77.174408 25.250677 -8.920763 -2.730000 -10.908409 7.374355 -0.541102 -13.853085 -10.954063 -4.885455 10.759824 23.442469 -9.926288 12.413046 -14.960623 4.251975 -70.179985 -53.147667 72.153236 -68.673767 10.171953 15.286600 6.992188 16.005859 -50.485588 -6.427974 8.898234 2.089853 53.703587 48.112911 29.601374 81.723976 -7.647075 21.741459 -7.001954 -15.996095 70.527344 -22.015396 18.645273 8.994668 56.671837 -4.467211 -4.321348 -36.763111 -9.674286 -4.457839 -52.420380 -28.924911 2.144284 83.617912 2.763960 5.885812 -28.869331 -3.781353 -2.793590 
-18.033056 43.347466 -45.751026 6.238852 -4.423666 76.217537 25.238449 -9.016614 -3.329290 -10.794482 7.688439 -0.709684 -14.547584 -10.890980 -4.439902 11.215899 22.788309 -9.146157 12.413046 -14.960623 4.251975 -70.871025 -53.815308 72.727478 -69.144234 10.151336 15.499448 6.992188 16.005859 -50.163319 -6.427974 8.898234 2.089853 53.894943 46.747429 30.306681 81.403038 -7.775903 21.573278 -7.001954 -15.996095 70.468750 -20.808992 18.757769 9.509207 55.648693 -4.514228 -4.236683 -36.445393 -9.335532 -4.208767 -52.128109 -28.827654 1.976810 84.449760 2.695507 5.916870 -27.458578 -2.842777 -2.057585 
-17.995523 43.426281 -45.456398 6.254966 -4.154856 75.105209 25.192553 -9.188398 -3.709523 -10.511305 7.886016 -0.781672 -15.386060 -10.658406 -4.115414 11.755580 22.251642 -8.601154 12.413046 -14.960623 4.251975 -71.324066 -54.532280 73.301483 -69.776993 10.122183 15.807215 6.992188 16.005859 -49.479729 -6.427974 8.898234 2.089853 54.125595 45.634533 30.659374 80.962402 -7.945329 21.334564 -7.001954 -15.996095 70.332039 -19.421299 18.971024 10.152409 54.506844 -4.572590 -4.152303 -36.621037 -8.928707 -3.894228 -51.628273 -28.553221 1.748374 85.144424 2.646548 5.940870 -25.985399 -1.730531 -1.314666 
-17.978634 43.500408 -45.131744 6.375197 -4.128800 73.885979 24.882990 -9.515968 -4.181139 -10.348621 8.255395 -0.906422 -16.017227 -10.309379 -3.786555 12.144744 21.663620 -8.007117 12.413046 -14.960623 4.251975 -71.531929 -55.005779 73.434967 -70.599541 10.067828 16.193970 6.992188 16.005859 -48.678947 -6.427974 8.898234 2.089853 54.270885 44.478081 31.061668 80.554962 -8.089900 21.117929 -7.001954 -15.996095 70.185547 -18.241659 19.169060 10.819077 53.247398 -4.621171 -4.067087 -36.667007 -8.529568 -3.595134 -51.499058 -28.190609 1.539066 85.731613 2.587895 5.961944 -24.233595 -1.186320 -0.829781 
-17.968313 43.571407 -44.807404 7.084892 -4.139854 72.709480 24.363745 -10.408129 -4.971321 -10.149718 8.864018 -1.098446 -16.790640 -9.777685 -3.353723 12.631573 20.604610 -7.183340 12.413046 -14.960623 4.251975 -72.186783 -55.488266 73.059120 -71.174339 10.019391 16.459438 6.992188 16.005859 -48.464104 -6.427974 8.898234 2.089853 54.217728 43.540287 31.373812 80.137459 -8.234847 20.900902 -7.001954 -15.996095 70.058594 -17.164764 18.647003 11.412517 51.908127 -4.679350 -3.963056 -35.832336 -7.962106 -3.196755 -51.892136 -28.348236 1.624801 86.171806 2.558596 5.976056 -22.234594 -1.173398 -0.560788 
-17.928902 43.651474 -44.479931 7.799303 -4.177613 71.724159 23.736458 -11.067856 -5.633868 -9.994886 9.104819 -1.245668 -17.829960 -9.693373 -2.898583 13.830618 20.271145 -6.333216 12.413046 -14.960623 4.251975 -72.687683 -55.924969 72.878082 -71.706139 9.969223 16.709972 6.992188 16.005859 -48.298088 -6.427974 8.898234 2.089853 54.035988 42.630417 31.667946 79.515030 -8.436039 20.573168 -7.001954 -15.996095 70.117188 -16.120106 17.973480 11.709682 50.509117 -4.739784 -3.856604 -35.072765 -6.849314 -2.448148 -51.948586 -28.649761 1.434258 86.269890 2.529891 5.981094 -20.603485 -0.996440 -0.310164 
-17.885117 43.765949 -44.099293 7.875477 -4.294734 70.645569 23.175438 -11.014290 -5.925005 -9.915128 9.066689 -1.337285 -18.539761 -10.050806 -2.352282 14.697307 20.651295 -5.312858 12.413046 -14.960623 4.251975 -72.669968 -56.263725 72.580414 -72.555168 9.876524 17.112776 6.992188 16.005859 -47.751213 -6.427974 8.898234 2.089853 53.960697 41.713860 31.890259 78.847755 -8.637252 20.230827 -7.001954 -15.996095 69.785156 -15.035084 18.039373 11.873295 49.031048 -4.795649 -3.742978 -34.542103 -5.782852 -1.749896 -51.081974 -28.123798 0.864957 85.956650 2.568309 5.969510 -20.133507 -0.408134 -0.055113 
-17.830694 43.902313 -43.690815 7.495740 -4.578952 69.688370 22.587126 -10.445231 -6.128602 -9.791438 8.705290 -1.428901 -18.768559 -9.767486 -1.877513 14.625887 20.522913 -4.332652 12.413046 -14.960623 4.251975 -72.397095 -56.725769 71.835426 -73.275322 9.786342 17.453852 6.992188 16.005859 -47.057854 -6.427974 8.898234 2.089853 54.347736 40.738354 31.619421 78.430397 -8.754904 20.010860 -7.001954 -15.996095 68.535156 -14.119013 18.686966 11.844954 47.611710 -4.844408 -3.638330 -33.974529 -5.128054 -1.362308 -49.504154 -27.075527 -0.235483 85.252190 2.627041 5.945625 -21.049229 0.500294 0.176079 
-17.732483 44.046501 -43.278896 7.170477 -4.881683 68.925781 21.831026 -9.771393 -6.374322 -9.813733 8.144109 -1.543693 -18.933641 -9.310145 -1.620307 14.997554 20.273018 -3.681580 12.413046 -14.960623 4.251975 -71.960930 -56.969746 71.011749 -73.803314 9.712314 17.715574 6.992188 16.005859 -46.276600 -6.427974 8.898234 2.089853 54.721203 39.440144 31.140278 78.147079 -8.835956 19.873091 -7.001954 -15.996095 67.148438 -13.179838 19.073410 11.360288 46.113674 -4.885558 -3.545798 -33.392780 -4.519433 -1.041194 -47.698338 -26.275009 -1.750822 84.107239 2.724825 5.904122 -22.931984 1.426646 0.371912 
-17.739679 44.115623 -42.837265 7.591263 -4.948280 67.754967 21.265884 -10.332317 -6.814245 -9.992219 8.227617 -1.667264 -19.272327 -8.999389 -1.452463 15.676105 19.940159 -3.254536 12.413046 -14.960623 4.251975 -71.628113 -57.084602 69.997246 -74.497261 9.603057 18.044462 6.992188 16.005859 -45.270744 -6.427974 8.898234 2.089853 54.844761 38.383526 30.739410 77.817894 -8.919759 19.701231 -7.001954 -15.996095 66.083984 -12.128275 18.738619 11.045686 44.653065 -4.934389 -3.417775 -32.676464 -3.590645 -0.542409 -46.993786 -25.707674 -2.092270 82.805481 2.822641 5.835750 -24.921650 2.080666 0.499608 
-17.671181 44.255749 -42.363106 7.950653 -4.694909 66.986603 20.952351 -10.803219 -7.571227 -9.854913 8.320190 -1.842918 -19.319906 -8.188004 -1.109594 15.462379 19.059429 -2.485778 12.413046 -14.960623 4.251975 -71.413101 -57.414639 68.739403 -75.262360 9.469755 18.419632 6.992188 16.005859 -44.010979 -6.427974 8.898234 2.089853 55.017353 37.578514 30.265131 77.602364 -8.974480 19.600235 -7.001954 -15.996095 65.039063 -10.719573 18.223915 10.704773 43.290993 -4.972957 -3.308259 -32.025730 -2.390461 0.104865 -45.358265 -25.535049 -2.800240 81.160912 2.949243 5.768417 -26.842422 2.899807 0.715463 
